<?xml version="1.0" encoding="utf-8"?>
<!-- Generator: Adobe Illustrator 23.0.3, SVG Export Plug-In . SVG Version: 6.00 Build 0)  -->
<svg version="1.1" id="Layer_1" xmlns="http://www.w3.org/2000/svg" xmlns:xlink="http://www.w3.org/1999/xlink" x="0px" y="0px"
	 viewBox="0 0 20 12" style="enable-background:new 0 0 20 12;" xml:space="preserve">
<style type="text/css">
	.st0{fill:#FFFFFF;}
</style>
<title>stats,statistics,line,graph</title>
<path class="st0" d="M18,0c-1.1,0-2,0.9-2,2c0,0.2,0,0.3,0.1,0.5l-4.6,4.6c-0.3-0.1-0.7-0.1-1,0L9,5.5C9,5.3,9,5.2,9,5
	c0-1.1-0.9-2-2-2S5,3.9,5,5c0,0.2,0,0.3,0.1,0.5L2.5,8.1C2.3,8,2.2,8,2,8c-1.1,0-2,0.9-2,2s0.9,2,2,2s2-0.9,2-2c0-0.2,0-0.3-0.1-0.5
	l2.6-2.6c0.3,0.1,0.7,0.1,1,0L9,8.5C9,8.7,9,8.8,9,9c0,1.1,0.9,2,2,2s2-0.9,2-2c0-0.2,0-0.3-0.1-0.5l4.6-4.6C17.7,4,17.8,4,18,4
	c1.1,0,2-0.9,2-2S19.1,0,18,0z"/>
</svg>
