<?xml version="1.0" encoding="utf-8"?>
<!-- Generator: Adobe Illustrator 23.0.6, SVG Export Plug-In . SVG Version: 6.00 Build 0)  -->
<svg version="1.1" id="Layer_1" xmlns="http://www.w3.org/2000/svg" xmlns:xlink="http://www.w3.org/1999/xlink" x="0px" y="0px"
	 viewBox="0 0 19 20" style="enable-background:new 0 0 19 20;" xml:space="preserve">
<style type="text/css">
	.st0{fill:#FFFFFF;}
</style>
<title>ORDER LIST</title>
<g>
	<path class="st0" d="M18.7,18.3l-4-4c2.1-2.9,1.5-7-1.4-9.1s-7-1.5-9.1,1.4s-1.5,7,1.4,9.1c2.3,1.7,5.4,1.7,7.7,0l4,4
		c0.4,0.4,1,0.4,1.4,0c0,0,0,0,0,0C19.1,19.3,19.1,18.7,18.7,18.3z M9.5,15C7,15,5,13,5,10.5S7,6,9.5,6S14,8,14,10.5
		C14,13,12,15,9.5,15z"/>
	<path class="st0" d="M14,18H2V3h12v1c0,0.6,0.4,1,1,1s1-0.4,1-1V2c0-0.6-0.4-1-1-1h-3c0-0.6-0.4-1-1-1H5C4.4,0,4,0.4,4,1H1
		C0.4,1,0,1.4,0,2v17c0,0.6,0.4,1,1,1h13c0.6,0,1-0.4,1-1S14.6,18,14,18z"/>
	<path class="st0" d="M12,8H7C6.4,8,6,8.4,6,9s0.4,1,1,1h5c0.6,0,1-0.4,1-1S12.6,8,12,8z"/>
	<path class="st0" d="M11,11H7c-0.6,0-1,0.4-1,1s0.4,1,1,1h4c0.6,0,1-0.4,1-1S11.6,11,11,11z"/>
</g>
</svg>
