<?xml version="1.0" encoding="utf-8"?>
<!-- Generator: Adobe Illustrator 23.0.6, SVG Export Plug-In . SVG Version: 6.00 Build 0)  -->
<svg version="1.1" id="Layer_1" xmlns="http://www.w3.org/2000/svg" xmlns:xlink="http://www.w3.org/1999/xlink" x="0px" y="0px"
	 viewBox="0 0 89.8 90" style="enable-background:new 0 0 89.8 90;" xml:space="preserve">
<style type="text/css">
	.st0{fill:#FFFFFF;}
</style>
<title>26</title>
<path class="st0" d="M0,48.6c-0.2-1.9,1.2-3.5,3.1-3.7c0.1,0,0.2,0,0.3,0c1.9,0,3.4,1.4,3.6,3.3c1.8,20.9,20.2,36.5,41.1,34.7
	s36.5-20.2,34.7-41.1S62.6,5.3,41.7,7.1c-8.9,0.8-17.3,4.7-23.7,11l7.4,7.4c0.3,0.3,0.3,0.7,0,1c-0.1,0.1-0.3,0.2-0.5,0.2H4.4
	c-0.4,0-0.7-0.3-0.7-0.7V5.5c0-0.4,0.3-0.7,0.7-0.7c0.2,0,0.4,0.1,0.5,0.2l8.1,8.1C30.7-4.4,59.1-4.4,76.7,13.2s17.5,46.1-0.1,63.6
	S30.6,94.3,13,76.8C5.5,69.2,0.9,59.3,0,48.6z M44.9,18.9c-1.9,0-3.5,1.6-3.5,3.5V45c0,0.9,0.4,1.8,1,2.5l16,16c1.4,1.4,3.6,1.4,5,0
	c1.4-1.4,1.4-3.6,0-5l-15-14.9V22.4C48.4,20.4,46.9,18.9,44.9,18.9z"/>
</svg>
