<?xml version="1.0" encoding="utf-8"?>
<!-- Generator: Adobe Illustrator 23.0.6, SVG Export Plug-In . SVG Version: 6.00 Build 0)  -->
<svg version="1.1" id="Layer_1" xmlns="http://www.w3.org/2000/svg" xmlns:xlink="http://www.w3.org/1999/xlink" x="0px" y="0px"
	 viewBox="0 0 76.3 77.2" style="enable-background:new 0 0 76.3 77.2;" xml:space="preserve">
<style type="text/css">
	.st0{fill:#FFFFFF;}
</style>
<title>Artboard 72</title>
<path class="st0" d="M72.9,60.2H62.3c-1.7,0-3,1.3-3,3v10.6c0,0.6,0.4,1,1,1c0.3,0,0.5-0.1,0.7-0.3l12.6-12.6c0.4-0.4,0.4-1,0-1.4
	C73.4,60.3,73.2,60.2,72.9,60.2z"/>
<path class="st0" d="M72.3,0H4C1.8,0,0,1.8,0,4v69.2c0,2.2,1.8,4,4,4h47.3c1.1,0,2-0.9,2-2v-12c0-5,4-9,9-9h12c1.1,0,2-0.9,2-2V4
	C76.3,1.8,74.5,0,72.3,0z M43.2,50.5H13.9c-1.7,0-3-1.3-3-3s1.3-3,3-3h29.3c1.7,0,3,1.3,3,3S44.9,50.5,43.2,50.5L43.2,50.5z
	 M63.2,35.5H13.9c-1.7,0-3-1.3-3-3s1.3-3,3-3h49.3c1.7,0,3,1.3,3,3S64.9,35.5,63.2,35.5z M63.2,20.5H13.9c-1.7,0-3-1.3-3-3
	s1.3-3,3-3h49.3c1.7,0,3,1.3,3,3S64.9,20.5,63.2,20.5z"/>
</svg>
