<?xml version="1.0" encoding="utf-8"?>
<!-- Generator: Adobe Illustrator 23.0.3, SVG Export Plug-In . SVG Version: 6.00 Build 0)  -->
<svg version="1.1" id="Layer_1" xmlns="http://www.w3.org/2000/svg" xmlns:xlink="http://www.w3.org/1999/xlink" x="0px" y="0px"
	 viewBox="0 0 89.2 83.1" style="enable-background:new 0 0 89.2 83.1;" xml:space="preserve">
<style type="text/css">
	.st0{fill:#FFFFFF;}
</style>
<path class="st0" d="M89.2,29v-8.3L44.6,0L0,20.7V29l9,4.2l-9,4.2v8.3l9,4.2l-9,4.2v8.3l44.6,20.7l44.6-20.7v-8.3l-9-4.2l9-4.2v-8.3
	l-9-4.2L89.2,29z M44.6,74.6L9.2,58.1L18,54l26.5,12.3L71,54l8.8,4.1L44.6,74.6z M27.1,49.8l8.8-4.1l8.6-4l8.6,4l8.8,4.1l-17.3,8.1
	L27.1,49.8z M71.1,45.6l-8.8-4.1l-9.1-4.2l-8.6-4l-8.6,4l-9.1,4.2L18,45.6l-8.8-4.1l8.8-4.1l9.1-4.2l17.4-8.1L62,33.2l9.1,4.2
	l8.8,4.1L71.1,45.6z M44.6,16.6L18,28.9l-8.8-4.1L44.6,8.4l35.3,16.4l-8.8,4.1L44.6,16.6z"/>
</svg>
