<?xml version="1.0" encoding="utf-8"?>
<!-- Generator: Adobe Illustrator 23.0.3, SVG Export Plug-In . SVG Version: 6.00 Build 0)  -->
<svg version="1.1" id="Layer_1" xmlns="http://www.w3.org/2000/svg" xmlns:xlink="http://www.w3.org/1999/xlink" x="0px" y="0px"
	 viewBox="0 0 96 96" style="enable-background:new 0 0 96 96;" xml:space="preserve">
<style type="text/css">
	.st0{fill:#FFFFFF;}
</style>
<path class="st0" d="M5.8,43.8h19.3c2.3,0,4.4-1.4,5.3-3.5c1.9-4.4,5.5-7.9,9.9-9.9c2.1-0.9,3.5-3,3.5-5.3V5.8
	c0-2.4-1.4-4.4-3.6-5.3C38-0.5,35.6,0,33.9,1.7L1.7,33.9C0,35.6-0.5,38,0.5,40.2C1.4,42.4,3.4,43.8,5.8,43.8z"/>
<path class="st0" d="M40.2,65.6L40.2,65.6c-4.4-1.9-7.9-5.5-9.9-9.9c-0.9-2.1-3-3.5-5.3-3.5H5.8c-2.4,0-4.4,1.4-5.3,3.6
	C-0.5,58,0,60.4,1.7,62.1l32.2,32.2c1.1,1.1,2.6,1.7,4,1.7c0.7,0,1.5-0.1,2.2-0.5c2.2-0.9,3.6-2.9,3.6-5.3V70.9
	C43.8,68.7,42.4,66.6,40.2,65.6z"/>
<path class="st0" d="M62.1,1.7C60.4,0,58-0.5,55.8,0.5c-2.2,0.9-3.6,2.9-3.6,5.3v19.3c0,2.3,1.4,4.4,3.5,5.3v0
	c4.4,1.9,7.9,5.5,9.9,9.9c0.9,2.1,3,3.5,5.3,3.5h19.3c2.4,0,4.4-1.4,5.3-3.6c0.9-2.2,0.4-4.6-1.2-6.3L62.1,1.7z"/>
<path class="st0" d="M90.2,52.3H70.9c-2.3,0-4.4,1.4-5.3,3.5c-1.9,4.4-5.5,7.9-9.9,9.9c-2.1,0.9-3.5,3-3.5,5.3v19.3
	c0,2.4,1.4,4.4,3.6,5.3c0.7,0.3,1.5,0.5,2.2,0.5c1.5,0,2.9-0.6,4-1.7l32.2-32.2c1.7-1.7,2.2-4.1,1.2-6.3
	C94.7,53.6,92.6,52.3,90.2,52.3z"/>
<path class="st0" d="M61.3,48c0-7.3-5.9-13.3-13.3-13.3S34.7,40.7,34.7,48S40.7,61.3,48,61.3S61.3,55.3,61.3,48z"/>
</svg>
