<?xml version="1.0" encoding="utf-8"?>
<!-- Generator: Adobe Illustrator 23.0.6, SVG Export Plug-In . SVG Version: 6.00 Build 0)  -->
<svg version="1.1" id="Layer_1" xmlns="http://www.w3.org/2000/svg" xmlns:xlink="http://www.w3.org/1999/xlink" x="0px" y="0px"
	 viewBox="0 0 100 100" style="enable-background:new 0 0 100 100;" xml:space="preserve">
<style type="text/css">
	.st0{fill:#FFFFFF;}
</style>
<path class="st0" d="M86.7,37.7l-0.5-0.2L84.4,33l0.2-0.5c5.6-13,5.2-13.4,4.3-14.4l-7.5-7.5c-0.4-0.3-0.8-0.5-1.3-0.5
	c-0.4,0-1.7,0-12.8,5.1l-0.4,0.2l-4.6-1.9l-0.2-0.5C56.9,0,56.4,0,55.1,0H44.5c-1.3,0-1.9,0-6.7,13.2l-0.2,0.5L33,15.6l-0.4-0.2
	c-7.5-3.2-11.9-4.9-13-4.9c-0.5,0-1,0.2-1.3,0.5l-7.5,7.5c-1,1-1.4,1.4,4.6,14.1l0.2,0.5l-1.9,4.5l-0.4,0.2C0,43,0,43.5,0,44.9v10.6
	c0,1.4,0,1.9,13.2,6.8l0.5,0.2l1.9,4.5l-0.2,0.5c-5.6,13-5.3,13.4-4.3,14.3l7.5,7.5c0.4,0.3,0.8,0.5,1.3,0.5c0.4,0,1.7,0,12.8-5.1
	l0.5-0.2l4.6,1.9l0.2,0.5c5.2,13.1,5.7,13.1,7,13.1h10.6c1.3,0,1.9,0,6.7-13.2l0.2-0.5l4.6-1.9l0.4,0.2c7.5,3.2,11.9,4.9,13,4.9
	c0.5,0,1-0.2,1.3-0.5l7.5-7.5c0.9-1,1.3-1.4-4.6-14.1l-0.2-0.5l1.8-4.5l0.4-0.2C100,56.9,100,56.4,100,55V44.5
	C100,43.1,100,42.5,86.7,37.7z M50,63.7c-7.6,0-13.7-6.2-13.7-13.8s6.2-13.7,13.8-13.7c7.6,0,13.7,6.2,13.7,13.7
	C63.8,57.6,57.6,63.7,50,63.7z"/>
</svg>
