<?xml version="1.0" encoding="utf-8"?>
<!-- Generator: Adobe Illustrator 23.0.3, SVG Export Plug-In . SVG Version: 6.00 Build 0)  -->
<svg version="1.1" id="Layer_1" xmlns="http://www.w3.org/2000/svg" xmlns:xlink="http://www.w3.org/1999/xlink" x="0px" y="0px"
	 viewBox="0 0 34.4 45.2" style="enable-background:new 0 0 34.4 45.2;" xml:space="preserve">
<style type="text/css">
	.st0{fill:#D47559;}
</style>
<path class="st0" d="M34.4,11.5c-0.1-0.4-0.3-0.8-0.7-1.1L17.3,0.2c-0.7-0.4-1.7-0.2-2.2,0.5C14.9,1.1,14.8,1.6,15,2
	c0.2,0.6,0.4,1.3,0.5,2c1.2,7.6-4,14.8-11.6,15.9c-0.4,0.1-0.8,0.3-1,0.6c-0.2,0.3-0.3,0.8-0.3,1.2c0.1,0.5,0.3,0.8,0.7,1.1l6.9,4.3
	l-10,15.8C-0.2,43.6,0,44.6,0.7,45c0.2,0.2,0.5,0.2,0.8,0.2c0.5,0,1-0.3,1.3-0.7l9.9-15.8l6.9,4.3c0.2,0.2,0.5,0.2,0.8,0.2
	c0.5,0,1-0.3,1.3-0.7c0.2-0.4,0.3-0.9,0.2-1.3c-0.2-0.6-0.4-1.3-0.5-2c-1.2-7.6,4-14.8,11.6-15.9c0.4-0.1,0.8-0.3,1-0.6
	C34.4,12.4,34.5,12,34.4,11.5z"/>
</svg>
