<?xml version="1.0" encoding="utf-8"?>
<!-- Generator: Adobe Illustrator 23.0.3, SVG Export Plug-In . SVG Version: 6.00 Build 0)  -->
<svg version="1.1" id="Layer_1" xmlns="http://www.w3.org/2000/svg" xmlns:xlink="http://www.w3.org/1999/xlink" x="0px" y="0px"
	 viewBox="0 0 90 85.8" style="enable-background:new 0 0 90 85.8;" xml:space="preserve">
<style type="text/css">
	.st0{fill:#D47559;}
</style>
<title>A</title>
<path class="st0" d="M87.5,30.8H56.9l-9.5-29c-0.4-1.3-1.9-2.1-3.2-1.6c-0.8,0.3-1.4,0.9-1.6,1.6l-9.5,29.1H2.5
	C1.1,30.8,0,32,0,33.4c0,0.8,0.4,1.6,1,2.1l24.8,18l-9.5,29.1c-0.4,1.3,0.3,2.8,1.6,3.2c0.8,0.3,1.6,0.1,2.3-0.4l24.8-18l24.8,18
	c1.1,0.8,2.7,0.6,3.5-0.6c0.5-0.7,0.6-1.5,0.4-2.3l-9.5-29.1l24.8-18c1.1-0.8,1.4-2.4,0.6-3.5C89,31.2,88.3,30.8,87.5,30.8z"/>
</svg>
