<?xml version="1.0" encoding="utf-8"?>
<!-- Generator: Adobe Illustrator 23.0.3, SVG Export Plug-In . SVG Version: 6.00 Build 0)  -->
<svg version="1.1"
	 id="Layer_1" xmlns:cc="http://creativecommons.org/ns#" xmlns:dc="http://purl.org/dc/elements/1.1/" xmlns:inkscape="http://www.inkscape.org/namespaces/inkscape" xmlns:rdf="http://www.w3.org/1999/02/22-rdf-syntax-ns#" xmlns:sodipodi="http://sodipodi.sourceforge.net/DTD/sodipodi-0.dtd" xmlns:svg="http://www.w3.org/2000/svg"
	 xmlns="http://www.w3.org/2000/svg" xmlns:xlink="http://www.w3.org/1999/xlink" x="0px" y="0px" viewBox="0 0 100 100"
	 style="enable-background:new 0 0 100 100;" xml:space="preserve">
<style type="text/css">
	.st0{fill:#4CAF50;}
</style>
<g transform="translate(0,-952.36218)">
	<path class="st0" d="M90.3,965.3c-2.3,0.1-4.5,1-6.1,2.7c-17.1,17.1-32.6,33.9-49.1,50.7l-20.2-16.1c-3.8-3-9.4-2.4-12.4,1.4
		c-3,3.8-2.4,9.4,1.4,12.4c0,0,0,0,0,0l26.4,21.2c3.5,2.8,8.6,2.5,11.7-0.7c19-19,36-37.7,54.6-56.4c3.5-3.4,3.6-9,0.2-12.5
		C95.2,966.2,92.8,965.2,90.3,965.3z"/>
</g>
</svg>
