<?xml version="1.0" encoding="utf-8"?>
<!-- Generator: Adobe Illustrator 23.1.0, SVG Export Plug-In . SVG Version: 6.00 Build 0)  -->
<svg version="1.1" id="Layer_1" xmlns="http://www.w3.org/2000/svg" xmlns:xlink="http://www.w3.org/1999/xlink" x="0px" y="0px"
	 viewBox="0 0 100 100" style="enable-background:new 0 0 100 100;" xml:space="preserve">
<style type="text/css">
	.st0{fill:#F44336;}
</style>
<title>Info</title>
<path class="st0" d="M50,0C22.4,0,0,22.4,0,50s22.4,50,50,50s50-22.4,50-50S77.6,0,50,0z M56.8,74.5c0,4.1-3,7.5-6.8,7.5
	s-6.8-3.3-6.8-7.5V50c0-4.1,3-7.5,6.8-7.5s6.8,3.4,6.8,7.5V74.5z M56.8,26.4c0,3.8-3,6.8-6.8,6.8s-6.8-3-6.8-6.8v-1.7
	c0-3.8,3-6.8,6.8-6.8s6.8,3,6.8,6.8V26.4z"/>
</svg>
