<?xml version="1.0" encoding="utf-8"?>
<!-- Generator: Adobe Illustrator 23.0.3, SVG Export Plug-In . SVG Version: 6.00 Build 0)  -->
<svg version="1.1" id="Layer_1" xmlns="http://www.w3.org/2000/svg" xmlns:xlink="http://www.w3.org/1999/xlink" x="0px" y="0px"
	 viewBox="0 0 100 100" style="enable-background:new 0 0 100 100;" xml:space="preserve">
<style type="text/css">
	.st0{fill:#D47559;}
</style>
<title>All3</title>
<path class="st0" d="M93.2,11.2c-0.2-2-1.6-3-3.7-3c-3.8,0-7.6,0-11.4,0h-1.7c0-1.8,0-3.4,0-4.9c0.2-1.6-1-3.1-2.6-3.2
	c-0.2,0-0.4,0-0.6,0C57.7,0,42.1,0,26.5,0c-1.6-0.2-3,1-3.2,2.6c0,0.2,0,0.4,0,0.6c0,1.6,0,3.1,0,4.9H10.3c-2.4,0-3.8,1.2-3.9,3.5
	c-0.2,4-0.2,8.1,0,12.1C7,33,12.1,41.4,20.1,46.1c3.3,1.9,6.1,4.5,8.2,7.7c3.6,5.6,9.1,8.9,15.5,10.3c0.9,0.2,1.4,0.5,1.3,1.5
	c-0.3,4.1-0.2,8.2-0.7,12.3c-1.1,8.3-5.7,13-13.8,14c-2,0.1-3.6,1.4-4.3,3.2c-0.3,0.8-0.6,1.5-0.9,2.3c-0.6,2-0.2,2.5,1.9,2.5h44.9
	c0.3,0,0.6,0,0.9,0c0.7,0.1,1.3-0.4,1.4-1.1c0-0.2,0-0.5-0.1-0.7c-0.3-1.1-0.7-2.2-1.2-3.2c-0.7-1.8-2.3-3-4.2-3.1
	c-7.8-1-11.8-4.9-13.6-12.6c-0.8-4.4-1.1-8.8-0.9-13.3c-0.1-0.9,0.4-1.7,1.3-1.9c0.1,0,0.1,0,0.2,0c7.8-1.8,14.3-7,17.9-14.1
	c0.4-0.7,1-1.3,1.8-1.7c7.2-3.1,12.9-9,15.7-16.3C94,25.3,94,18.2,93.2,11.2z M23.2,40.4c-0.3-0.2-0.7-0.4-1-0.6
	c-5.4-3.9-8.8-10-9.3-16.6c-0.2-2.4-0.2-4.8-0.3-7.1c-0.2-0.7,0.2-1.4,0.9-1.6c0.2-0.1,0.4-0.1,0.6,0c3,0.1,5.9,0,9.1,0V40.4z
	 M77.3,40c-0.2,0.1-0.5,0.3-0.7,0.4V14.6c3.2,0,6.3,0,9.3,0c0.5,0.1,1,0.5,1.2,1C87.6,25.2,85.6,33.9,77.3,40z"/>
</svg>
