<?xml version="1.0" encoding="utf-8"?>
<!-- Generator: Adobe Illustrator 23.0.3, SVG Export Plug-In . SVG Version: 6.00 Build 0)  -->
<svg version="1.1" id="Layer_1" xmlns="http://www.w3.org/2000/svg" xmlns:xlink="http://www.w3.org/1999/xlink" x="0px" y="0px"
	 viewBox="0 0 100 100" style="enable-background:new 0 0 100 100;" xml:space="preserve">
<style type="text/css">
	.st0{fill:#9C27B0;}
</style>
<title>NOUN_Sign</title>
<path class="st0" d="M82.8,95.9L50,63.1L17.2,95.9c-3.6,3.6-9.5,3.6-13.1,0c0,0,0,0,0,0l0,0c-3.6-3.6-3.6-9.5,0-13.1c0,0,0,0,0,0
	L36.9,50L4.1,17.2c-3.6-3.6-3.6-9.5,0-13.1c0,0,0,0,0,0l0,0c3.6-3.6,9.5-3.6,13.1,0c0,0,0,0,0,0L50,36.9L82.8,4.1
	c3.6-3.6,9.5-3.6,13.1,0c0,0,0,0,0,0l0,0c3.6,3.6,3.6,9.5,0,13.1c0,0,0,0,0,0L63.1,50l32.8,32.8c3.6,3.6,3.6,9.5,0,13.1c0,0,0,0,0,0
	l0,0C92.3,99.5,86.4,99.5,82.8,95.9C82.8,95.9,82.8,95.9,82.8,95.9z"/>
</svg>
