<?xml version="1.0" encoding="utf-8"?>
<!-- Generator: Adobe Illustrator 23.0.6, SVG Export Plug-In . SVG Version: 6.00 Build 0)  -->
<svg version="1.1" id="Layer_1" xmlns="http://www.w3.org/2000/svg" xmlns:xlink="http://www.w3.org/1999/xlink" x="0px" y="0px"
	 viewBox="0 0 23 23" style="enable-background:new 0 0 23 23;" xml:space="preserve">
<style type="text/css">
	.st0{fill:#FFFFFF;}
</style>
<g>
	<path class="st0" d="M3.5,23C1.6,23,0,21.4,0,19.5l0-16C0,1.6,1.6,0,3.5,0h9C13.3,0,14,0.7,14,1.5S13.3,3,12.5,3H3v17l17,0l0-9.5
		C20,9.7,20.7,9,21.5,9S23,9.7,23,10.5v9c0,1.9-1.6,3.5-3.5,3.5L3.5,23z"/>
	<path class="st0" d="M7.9,11.9c0-0.1,0.1-0.2,0.1-0.3L19.7,0L20,0.1c1.5,0.4,2.6,1.5,3,3L23,3.3L11.4,14.9
		c-0.1,0.1-0.2,0.1-0.3,0.1l-4,0.8L7.9,11.9z"/>
</g>
</svg>
