<?xml version="1.0" encoding="utf-8"?>
<!-- Generator: Adobe Illustrator 23.0.6, SVG Export Plug-In . SVG Version: 6.00 Build 0)  -->
<svg version="1.1"
	 id="Layer_1" xmlns:cc="http://creativecommons.org/ns#" xmlns:dc="http://purl.org/dc/elements/1.1/" xmlns:inkscape="http://www.inkscape.org/namespaces/inkscape" xmlns:rdf="http://www.w3.org/1999/02/22-rdf-syntax-ns#" xmlns:sodipodi="http://sodipodi.sourceforge.net/DTD/sodipodi-0.dtd" xmlns:svg="http://www.w3.org/2000/svg"
	 xmlns="http://www.w3.org/2000/svg" xmlns:xlink="http://www.w3.org/1999/xlink" x="0px" y="0px" viewBox="0 0 54.2 42"
	 style="enable-background:new 0 0 54.2 42;" xml:space="preserve">
<style type="text/css">
	.st0{fill:#FFFFFF;}
</style>
<g transform="translate(0,-952.36218)">
	<path class="st0" d="M48,952.4c-1.6,0-3,0.7-4.1,1.8c-9.4,9.4-16.6,17.2-25.2,26l-8.7-7.4c-2.5-2.2-6.3-2-8.5,0.4
		c-2.2,2.5-2,6.3,0.4,8.5c0.1,0.1,0.2,0.2,0.3,0.2l13,11c2.4,2,5.9,1.9,8.1-0.3c10.8-10.8,18.5-19.4,29-30c2.4-2.3,2.4-6.1,0.1-8.5
		C51.3,953,49.7,952.3,48,952.4z"/>
</g>
</svg>
